<svg xmlns="http://www.w3.org/2000/svg" viewBox="0 0 435.92 65.29"><defs><style>.cls-1{fill:#9d5125;}.cls-2{fill:#f58534;}.cls-3{fill:#58595b;}.cls-4{fill:#fff;}.cls-5{fill:#3c4929;}.cls-6{fill:#b7ca9d;}.cls-7{fill:#759c3f;}.cls-8{fill:#4c622c;}.cls-9{fill:#8c191b;}.cls-10{fill:#e82529;}</style></defs><title>integration</title><g id="Layer_2" data-name="Layer 2"><g id="Layer_1-2" data-name="Layer 1"><polygon class="cls-1" points="30.99 35.77 30.99 28.8 28.02 25.82 26.05 23.86 28.02 21.9 30.99 18.93 30.99 11.95 30.99 11.79 34.48 11.79 34.48 9.51 24.97 2.98 15.46 9.51 15.46 11.79 18.95 11.79 18.95 11.95 18.95 18.93 21.92 21.9 23.88 23.86 21.92 25.82 18.95 28.8 18.95 35.77 15.46 33.66 15.46 35.94 24.97 45.44 34.48 35.94 34.48 33.66 30.99 35.77 30.99 35.77"/><polygon class="cls-1" points="19.44 23.86 19.44 21.58 9.94 18.91 1.27 18.91 1.27 28.82 9.94 28.82 9.94 33.37 19.44 23.86 19.44 23.86"/><polygon class="cls-1" points="48.66 18.91 40 18.91 30.49 21.58 30.49 23.86 40 33.37 40 28.82 48.66 28.82 48.66 18.91 48.66 18.91"/><polygon class="cls-2" points="30.99 33.49 30.99 26.52 28.02 23.54 26.05 21.58 28.02 19.62 30.99 16.65 30.99 9.67 30.99 9.51 34.48 9.51 24.97 0 15.46 9.51 18.95 9.51 18.95 9.67 18.95 16.65 21.92 19.62 23.88 21.58 21.92 23.54 18.95 26.52 18.95 33.49 18.95 33.66 15.46 33.66 24.97 43.16 34.48 33.66 30.99 33.66 30.99 33.49 30.99 33.49"/><polygon class="cls-2" points="19.44 21.58 9.94 12.07 9.94 16.63 1.27 16.63 1.27 26.54 9.94 26.54 9.94 31.09 19.44 21.58 19.44 21.58"/><polygon class="cls-2" points="48.66 16.63 40 16.63 40 12.07 30.49 21.58 40 31.09 40 26.54 48.66 26.54 48.66 16.63 48.66 16.63"/><path class="cls-3" d="M0,63.05l2.22-6.56h.94l2.22,6.56H4.49l-.62-2H1.48l-.63,2Zm2-3.67-.31,1h2l-.31-1c-.12-.37-.23-.73-.34-1.1s-.21-.73-.32-1.11h0c-.1.38-.2.75-.31,1.11S2.12,59,2,59.38Z"/><path class="cls-3" d="M7.59,63.17a1.3,1.3,0,0,1-1.13-.48,2.36,2.36,0,0,1-.36-1.42V58.19h.83v3a1.69,1.69,0,0,0,.22,1,.76.76,0,0,0,.69.31,1.18,1.18,0,0,0,.67-.2,3.29,3.29,0,0,0,.64-.62V58.19H10v4.86H9.29l-.07-.76h0a3.48,3.48,0,0,1-.71.64A1.62,1.62,0,0,1,7.59,63.17Z"/><path class="cls-3" d="M13.14,63.17a1.62,1.62,0,0,1-.66-.12,1.14,1.14,0,0,1-.42-.33,1.21,1.21,0,0,1-.24-.51,2.73,2.73,0,0,1-.07-.66V58.86H11v-.62l.76-.05.1-1.36h.69v1.36h1.31v.67H12.58v2.7a1.21,1.21,0,0,0,.17.69.64.64,0,0,0,.58.25,1.45,1.45,0,0,0,.28,0l.27-.09L14,63l-.44.12A1.82,1.82,0,0,1,13.14,63.17Z"/><path class="cls-3" d="M16.74,63.17a2.14,2.14,0,0,1-1.57-.67,2.3,2.3,0,0,1-.49-.8,2.76,2.76,0,0,1-.19-1.07,2.86,2.86,0,0,1,.19-1.09,2.39,2.39,0,0,1,.49-.8,2.08,2.08,0,0,1,.72-.5,2.05,2.05,0,0,1,.85-.17,2.1,2.1,0,0,1,.86.17,2,2,0,0,1,.71.5,2.59,2.59,0,0,1,.5.8A3.08,3.08,0,0,1,19,60.63a3,3,0,0,1-.18,1.07,2.47,2.47,0,0,1-.5.8,2.18,2.18,0,0,1-.71.5A2.27,2.27,0,0,1,16.74,63.17Zm0-.68a1.2,1.2,0,0,0,.57-.14,1.35,1.35,0,0,0,.45-.38,2,2,0,0,0,.28-.58,2.59,2.59,0,0,0,.1-.76,2.66,2.66,0,0,0-.1-.77,1.9,1.9,0,0,0-.28-.59,1.38,1.38,0,0,0-.45-.39,1.31,1.31,0,0,0-1.14,0,1.26,1.26,0,0,0-.44.39,1.71,1.71,0,0,0-.29.59,2.66,2.66,0,0,0-.1.77,2.59,2.59,0,0,0,.1.76,1.75,1.75,0,0,0,.29.58,1.23,1.23,0,0,0,.44.38A1.2,1.2,0,0,0,16.74,62.49Z"/><path class="cls-3" d="M21.54,63.17a2.72,2.72,0,0,1-1-.19,3.28,3.28,0,0,1-.82-.48l.41-.55a3.34,3.34,0,0,0,.66.42,1.86,1.86,0,0,0,.77.16,1.07,1.07,0,0,0,.72-.22.71.71,0,0,0,.24-.54.52.52,0,0,0-.1-.33,1,1,0,0,0-.25-.25,2,2,0,0,0-.36-.18l-.4-.16c-.17-.06-.35-.13-.52-.21a1.77,1.77,0,0,1-.46-.28A1.52,1.52,0,0,1,20.1,60a1,1,0,0,1-.13-.53,1.42,1.42,0,0,1,.11-.55,1.22,1.22,0,0,1,.34-.44,1.53,1.53,0,0,1,.52-.29,2.19,2.19,0,0,1,.7-.1,2.15,2.15,0,0,1,.85.16,2.4,2.4,0,0,1,.66.39l-.39.52a2.55,2.55,0,0,0-.52-.31,1.45,1.45,0,0,0-.59-.12.91.91,0,0,0-.67.21.64.64,0,0,0-.22.49.48.48,0,0,0,.09.29.85.85,0,0,0,.24.22,1.63,1.63,0,0,0,.35.17l.4.16.53.21a2,2,0,0,1,.47.27,1.39,1.39,0,0,1,.35.41,1.16,1.16,0,0,1,.13.58,1.51,1.51,0,0,1-.11.56,1.48,1.48,0,0,1-.34.46,1.59,1.59,0,0,1-.56.31A2.3,2.3,0,0,1,21.54,63.17Z"/><path class="cls-3" d="M26.38,63.17a2.44,2.44,0,0,1-.9-.17,2,2,0,0,1-.72-.5,2.3,2.3,0,0,1-.49-.8,3.2,3.2,0,0,1-.17-1.07,2.86,2.86,0,0,1,.19-1.09,2.61,2.61,0,0,1,.51-.8,2.06,2.06,0,0,1,.74-.5,2.32,2.32,0,0,1,.9-.17,1.74,1.74,0,0,1,.82.17,2.33,2.33,0,0,1,.6.4l-.42.54a2.08,2.08,0,0,0-.44-.31,1.18,1.18,0,0,0-.53-.12,1.39,1.39,0,0,0-.61.13,1.29,1.29,0,0,0-.48.39,2,2,0,0,0-.32.59,2.65,2.65,0,0,0-.11.77,2.58,2.58,0,0,0,.11.76,1.79,1.79,0,0,0,.31.58,1.24,1.24,0,0,0,.47.38,1.4,1.4,0,0,0,.61.14,1.33,1.33,0,0,0,.63-.15,2.66,2.66,0,0,0,.51-.34l.36.55a2.62,2.62,0,0,1-.73.45A2.21,2.21,0,0,1,26.38,63.17Z"/><path class="cls-3" d="M30,63.17a1.48,1.48,0,0,1-1-.36,1.29,1.29,0,0,1-.4-1,1.36,1.36,0,0,1,.71-1.23A5.86,5.86,0,0,1,31.6,60a3.14,3.14,0,0,0,0-.45,1.38,1.38,0,0,0-.16-.39.74.74,0,0,0-.3-.28,1.06,1.06,0,0,0-.5-.1,1.92,1.92,0,0,0-.79.16,3,3,0,0,0-.66.36l-.32-.57a5.29,5.29,0,0,1,.83-.43,2.92,2.92,0,0,1,1.08-.2,1.51,1.51,0,0,1,1.29.54,2.41,2.41,0,0,1,.4,1.46v3h-.68l-.07-.58h0a4.21,4.21,0,0,1-.75.49A1.82,1.82,0,0,1,30,63.17Zm.24-.66a1.41,1.41,0,0,0,.66-.17,3.21,3.21,0,0,0,.66-.48V60.51a6.46,6.46,0,0,0-1,.19,2.53,2.53,0,0,0-.67.26.88.88,0,0,0-.37.34.8.8,0,0,0-.12.43.68.68,0,0,0,.25.6A1,1,0,0,0,30.28,62.51Z"/><path class="cls-3" d="M34.83,63.17a.78.78,0,0,1-.67-.28,1.44,1.44,0,0,1-.2-.82V55.93h.82v6.2a.43.43,0,0,0,.07.28.23.23,0,0,0,.16.08h.07l.11,0,.11.62-.19.06Z"/><path class="cls-3" d="M36.93,57.19a.59.59,0,0,1-.41-.15.53.53,0,0,1-.16-.38.53.53,0,0,1,.16-.39.64.64,0,0,1,.41-.14.59.59,0,0,1,.4.14.51.51,0,0,1,.17.39.5.5,0,0,1-.17.38A.55.55,0,0,1,36.93,57.19Zm-.42,5.86V58.19h.82v4.86Z"/><path class="cls-3" d="M39,63.05V58.19h.68l.07.7h0a3.94,3.94,0,0,1,.73-.59,1.77,1.77,0,0,1,.9-.23,1.29,1.29,0,0,1,1.12.48A2.34,2.34,0,0,1,42.86,60v3.08H42v-3a1.72,1.72,0,0,0-.22-1,.81.81,0,0,0-.7-.3,1.17,1.17,0,0,0-.67.19,4.1,4.1,0,0,0-.66.56v3.52Z"/><path class="cls-3" d="M46.08,65.29a3.49,3.49,0,0,1-.82-.09,2,2,0,0,1-.64-.25,1.45,1.45,0,0,1-.41-.41,1.13,1.13,0,0,1-.14-.56,1,1,0,0,1,.19-.59,2,2,0,0,1,.52-.51v0a1.14,1.14,0,0,1-.31-.31,1,1,0,0,1,.05-1,1.23,1.23,0,0,1,.36-.36v0a2.2,2.2,0,0,1-.44-.54,1.49,1.49,0,0,1-.19-.77,1.81,1.81,0,0,1,.14-.72,1.59,1.59,0,0,1,.4-.55,1.77,1.77,0,0,1,.58-.34,2.2,2.2,0,0,1,1.08-.09,1.35,1.35,0,0,1,.32.09h1.69v.63h-1a1.23,1.23,0,0,1,.28.43,1.32,1.32,0,0,1,.12.57,1.75,1.75,0,0,1-.14.7,1.47,1.47,0,0,1-.38.53,1.63,1.63,0,0,1-.57.34,1.92,1.92,0,0,1-.69.12,1.64,1.64,0,0,1-.37,0,1.9,1.9,0,0,1-.36-.12,1,1,0,0,0-.22.24.59.59,0,0,0-.09.34.48.48,0,0,0,.18.38,1.12,1.12,0,0,0,.68.15h.94a2.38,2.38,0,0,1,1.27.27,1,1,0,0,1,.43.89,1.33,1.33,0,0,1-.17.64,1.77,1.77,0,0,1-.49.54,2.56,2.56,0,0,1-.78.36A3.54,3.54,0,0,1,46.08,65.29Zm.12-.57a2.08,2.08,0,0,0,.63-.09,1.85,1.85,0,0,0,.49-.22,1,1,0,0,0,.31-.31.75.75,0,0,0,.11-.37.47.47,0,0,0-.25-.47,1.59,1.59,0,0,0-.73-.13h-.84l-.31,0a1.8,1.8,0,0,1-.32-.06,1.29,1.29,0,0,0-.38.4.84.84,0,0,0-.12.42.7.7,0,0,0,.37.62A2,2,0,0,0,46.2,64.72ZM46.08,61a1,1,0,0,0,.39-.08,1,1,0,0,0,.33-.23.93.93,0,0,0,.23-.37,1.42,1.42,0,0,0,.08-.48,1.14,1.14,0,0,0-.3-.84,1.06,1.06,0,0,0-1.46,0,1.14,1.14,0,0,0-.3.84,1.42,1.42,0,0,0,.08.48,1,1,0,0,0,.22.37,1.23,1.23,0,0,0,.33.23A1.1,1.1,0,0,0,46.08,61Z"/><path class="cls-1" d="M132.16,23.61A21.52,21.52,0,1,1,110.64,2.09a21.51,21.51,0,0,1,21.52,21.52Z"/><path class="cls-2" d="M132.16,21.84A21.52,21.52,0,1,1,110.64.32a21.52,21.52,0,0,1,21.52,21.52Z"/><polygon class="cls-4" points="104.36 12.27 104.36 4.45 116.92 4.45 116.92 12.27 104.36 12.27 104.36 12.27"/><polygon class="cls-4" points="120.28 33.44 120.28 27.07 126.64 27.07 126.64 33.44 120.28 33.44 120.28 33.44"/><polygon class="cls-4" points="112.23 33.44 112.23 27.07 118.59 27.07 118.59 33.44 112.23 33.44 112.23 33.44"/><polygon class="cls-4" points="102.44 33.44 102.44 27.07 108.8 27.07 108.8 33.44 102.44 33.44 102.44 33.44"/><polygon class="cls-4" points="94.39 33.44 94.39 27.07 100.75 27.07 100.75 33.44 94.39 33.44 94.39 33.44"/><polygon class="cls-4" points="98.15 27.8 97 27.8 97 21.56 98.15 21.56 98.15 27.8 98.15 27.8"/><polygon class="cls-4" points="106.19 22.71 97 22.71 97 21.56 106.19 21.56 106.19 22.71 106.19 22.71"/><polygon class="cls-4" points="106.19 27.8 105.05 27.8 105.05 21.56 106.19 21.56 106.19 27.8 106.19 27.8"/><polygon class="cls-4" points="115.98 27.8 114.84 27.8 114.84 21.56 115.98 21.56 115.98 27.8 115.98 27.8"/><polygon class="cls-4" points="124.03 22.71 114.84 22.71 114.84 21.56 124.03 21.56 124.03 22.71 124.03 22.71"/><polygon class="cls-4" points="124.03 27.8 122.88 27.8 122.88 21.56 124.03 21.56 124.03 27.8 124.03 27.8"/><polygon class="cls-4" points="102.17 22.14 101.03 22.14 101.03 17.11 102.17 17.11 102.17 22.14 102.17 22.14"/><polygon class="cls-4" points="111.22 17.2 110.07 17.2 110.07 11.12 111.22 11.12 111.22 17.2 111.22 17.2"/><polygon class="cls-4" points="120.03 17.78 101.03 17.78 101.03 16.63 120.03 16.63 120.03 17.78 120.03 17.78"/><polygon class="cls-4" points="120.03 22.14 118.88 22.14 118.88 17.11 120.03 17.11 120.03 22.14 120.03 22.14"/><path class="cls-3" d="M79.73,63.05V56.49h.83v5.85h2.87v.71Z"/><path class="cls-3" d="M86.28,63.17a2.27,2.27,0,0,1-.86-.17,2.18,2.18,0,0,1-.71-.5,2.47,2.47,0,0,1-.5-.8A3,3,0,0,1,84,60.63a3.08,3.08,0,0,1,.18-1.09,2.59,2.59,0,0,1,.5-.8,2,2,0,0,1,.71-.5,2.1,2.1,0,0,1,.86-.17,2.05,2.05,0,0,1,.85.17,2.08,2.08,0,0,1,.72.5,2.39,2.39,0,0,1,.49.8,2.86,2.86,0,0,1,.19,1.09,2.76,2.76,0,0,1-.19,1.07,2.3,2.3,0,0,1-.49.8,2.14,2.14,0,0,1-1.57.67Zm0-.68a1.2,1.2,0,0,0,.57-.14,1.23,1.23,0,0,0,.44-.38,1.75,1.75,0,0,0,.29-.58,2.59,2.59,0,0,0,.1-.76,2.66,2.66,0,0,0-.1-.77,1.71,1.71,0,0,0-.29-.59,1.26,1.26,0,0,0-.44-.39,1.31,1.31,0,0,0-1.14,0,1.38,1.38,0,0,0-.45.39,1.9,1.9,0,0,0-.28.59,2.66,2.66,0,0,0-.1.77,2.59,2.59,0,0,0,.1.76,2,2,0,0,0,.28.58,1.35,1.35,0,0,0,.45.38A1.2,1.2,0,0,0,86.28,62.49Z"/><path class="cls-3" d="M90.79,63.17a1.48,1.48,0,0,1-1-.36,1.29,1.29,0,0,1-.4-1,1.36,1.36,0,0,1,.71-1.23A5.86,5.86,0,0,1,92.35,60a2.14,2.14,0,0,0,0-.45,1.13,1.13,0,0,0-.15-.39.77.77,0,0,0-.31-.28,1,1,0,0,0-.49-.1,1.92,1.92,0,0,0-.79.16,3,3,0,0,0-.66.36l-.32-.57a5.29,5.29,0,0,1,.83-.43,2.92,2.92,0,0,1,1.08-.2,1.51,1.51,0,0,1,1.29.54,2.41,2.41,0,0,1,.4,1.46v3H92.5l-.07-.58h0a4.21,4.21,0,0,1-.75.49A1.82,1.82,0,0,1,90.79,63.17Zm.24-.66a1.41,1.41,0,0,0,.66-.17,3.21,3.21,0,0,0,.66-.48V60.51a6.85,6.85,0,0,0-1,.19,2.68,2.68,0,0,0-.67.26,1,1,0,0,0-.37.34.89.89,0,0,0-.11.43.68.68,0,0,0,.25.6A1,1,0,0,0,91,62.51Z"/><path class="cls-3" d="M96.37,63.17a1.83,1.83,0,0,1-1.47-.66,2.9,2.9,0,0,1-.54-1.88,3.25,3.25,0,0,1,.17-1.07,2.6,2.6,0,0,1,.47-.8,2.06,2.06,0,0,1,.67-.51,1.84,1.84,0,0,1,.8-.18,1.67,1.67,0,0,1,.73.15,2.82,2.82,0,0,1,.63.41l0-.83V55.93h.83v7.12h-.68l-.07-.57h0a3.37,3.37,0,0,1-.67.48A1.59,1.59,0,0,1,96.37,63.17Zm.18-.69a1.3,1.3,0,0,0,.64-.17,2.41,2.41,0,0,0,.6-.5V59.27a2.16,2.16,0,0,0-.6-.4,1.46,1.46,0,0,0-.58-.11,1.17,1.17,0,0,0-.55.13,1.44,1.44,0,0,0-.44.38,1.82,1.82,0,0,0-.3.59,2.53,2.53,0,0,0-.11.76A2.37,2.37,0,0,0,95.56,62,1.15,1.15,0,0,0,96.55,62.48Z"/><path class="cls-3" d="M104.41,63.17a1.75,1.75,0,0,1-.71-.17,2.68,2.68,0,0,1-.68-.45h0l-.07.5h-.66V55.93h.82v1.94l0,.88a3.16,3.16,0,0,1,.72-.49,1.77,1.77,0,0,1,.8-.19,1.84,1.84,0,0,1,.83.17,1.71,1.71,0,0,1,.6.5,2.17,2.17,0,0,1,.37.78,3.56,3.56,0,0,1,.13,1,3.5,3.5,0,0,1-.17,1.11,2.66,2.66,0,0,1-.46.83,2.06,2.06,0,0,1-.67.51A1.84,1.84,0,0,1,104.41,63.17Zm-.14-.69a1.15,1.15,0,0,0,.55-.14,1.33,1.33,0,0,0,.44-.38,1.68,1.68,0,0,0,.29-.6,2.88,2.88,0,0,0,.11-.81,3.29,3.29,0,0,0-.07-.73,1.62,1.62,0,0,0-.23-.57,1,1,0,0,0-.4-.36,1.16,1.16,0,0,0-.58-.13,2,2,0,0,0-1.3.66V62a2.16,2.16,0,0,0,.63.39A1.61,1.61,0,0,0,104.27,62.48Z"/><path class="cls-3" d="M108.77,63.17a1.48,1.48,0,0,1-1-.36,1.29,1.29,0,0,1-.4-1,1.36,1.36,0,0,1,.71-1.23,5.86,5.86,0,0,1,2.27-.59,2.14,2.14,0,0,0,0-.45,1.13,1.13,0,0,0-.15-.39.77.77,0,0,0-.31-.28,1,1,0,0,0-.49-.1,1.92,1.92,0,0,0-.79.16,3,3,0,0,0-.66.36l-.32-.57a5.29,5.29,0,0,1,.83-.43,2.92,2.92,0,0,1,1.08-.2,1.51,1.51,0,0,1,1.29.54,2.41,2.41,0,0,1,.4,1.46v3h-.68l-.07-.58h0a4.21,4.21,0,0,1-.75.49A1.82,1.82,0,0,1,108.77,63.17Zm.24-.66a1.41,1.41,0,0,0,.66-.17,3.21,3.21,0,0,0,.66-.48V60.51a6.85,6.85,0,0,0-1,.19,2.68,2.68,0,0,0-.67.26,1,1,0,0,0-.37.34.89.89,0,0,0-.11.43.68.68,0,0,0,.25.6A1,1,0,0,0,109,62.51Z"/><path class="cls-3" d="M113.56,63.17a.78.78,0,0,1-.67-.28,1.44,1.44,0,0,1-.2-.82V55.93h.82v6.2a.43.43,0,0,0,.07.28.23.23,0,0,0,.16.08h.07l.11,0,.11.62-.19.06Z"/><path class="cls-3" d="M116.36,63.17a1.48,1.48,0,0,1-1-.36,1.29,1.29,0,0,1-.4-1,1.36,1.36,0,0,1,.71-1.23,5.86,5.86,0,0,1,2.27-.59,2.14,2.14,0,0,0,0-.45,1.13,1.13,0,0,0-.15-.39.77.77,0,0,0-.31-.28,1,1,0,0,0-.49-.1,1.92,1.92,0,0,0-.79.16,3,3,0,0,0-.66.36l-.32-.57a5.29,5.29,0,0,1,.83-.43,2.92,2.92,0,0,1,1.08-.2,1.51,1.51,0,0,1,1.29.54,2.41,2.41,0,0,1,.4,1.46v3h-.68l-.07-.58h0a4.21,4.21,0,0,1-.75.49A1.82,1.82,0,0,1,116.36,63.17Zm.24-.66a1.41,1.41,0,0,0,.66-.17,3.21,3.21,0,0,0,.66-.48V60.51a6.85,6.85,0,0,0-1,.19,2.68,2.68,0,0,0-.67.26,1,1,0,0,0-.37.34.89.89,0,0,0-.11.43.68.68,0,0,0,.25.6A1,1,0,0,0,116.6,62.51Z"/><path class="cls-3" d="M120.28,63.05V58.19H121l.07.7h0a3.94,3.94,0,0,1,.73-.59,1.77,1.77,0,0,1,.9-.23,1.29,1.29,0,0,1,1.12.48,2.34,2.34,0,0,1,.36,1.42v3.08h-.82v-3a1.72,1.72,0,0,0-.22-1,.81.81,0,0,0-.7-.3,1.17,1.17,0,0,0-.67.19,4.1,4.1,0,0,0-.66.56v3.52Z"/><path class="cls-3" d="M127.67,63.17a2.44,2.44,0,0,1-.9-.17,2.16,2.16,0,0,1-.73-.5,2.44,2.44,0,0,1-.48-.8,3.2,3.2,0,0,1-.17-1.07,2.86,2.86,0,0,1,.19-1.09,2.61,2.61,0,0,1,.51-.8,2.06,2.06,0,0,1,.74-.5,2.32,2.32,0,0,1,.9-.17,1.74,1.74,0,0,1,.82.17,2.33,2.33,0,0,1,.6.4l-.42.54a1.9,1.9,0,0,0-.45-.31,1.11,1.11,0,0,0-.52-.12,1.39,1.39,0,0,0-.61.13,1.29,1.29,0,0,0-.48.39,2,2,0,0,0-.32.59,2.65,2.65,0,0,0-.11.77,2.58,2.58,0,0,0,.11.76,1.77,1.77,0,0,0,.3.58,1.27,1.27,0,0,0,.48.38,1.4,1.4,0,0,0,.61.14,1.29,1.29,0,0,0,.62-.15,2.75,2.75,0,0,0,.52-.34l.36.55a2.62,2.62,0,0,1-.73.45A2.21,2.21,0,0,1,127.67,63.17Z"/><path class="cls-3" d="M130.73,57.19a.59.59,0,0,1-.41-.15.49.49,0,0,1-.16-.38.5.5,0,0,1,.16-.39.64.64,0,0,1,.41-.14.61.61,0,0,1,.4.14.51.51,0,0,1,.17.39.5.5,0,0,1-.17.38A.57.57,0,0,1,130.73,57.19Zm-.42,5.86V58.19h.82v4.86Z"/><path class="cls-3" d="M132.77,63.05V58.19h.68l.07.7h0a3.94,3.94,0,0,1,.73-.59,1.77,1.77,0,0,1,.9-.23,1.29,1.29,0,0,1,1.12.48,2.34,2.34,0,0,1,.36,1.42v3.08h-.82v-3a1.72,1.72,0,0,0-.22-1,.81.81,0,0,0-.7-.3,1.17,1.17,0,0,0-.67.19,4.1,4.1,0,0,0-.66.56v3.52Z"/><path class="cls-3" d="M139.88,65.29a3.49,3.49,0,0,1-.82-.09,2,2,0,0,1-.64-.25,1.45,1.45,0,0,1-.41-.41,1.13,1.13,0,0,1-.14-.56,1,1,0,0,1,.19-.59,2,2,0,0,1,.52-.51v0a1.14,1.14,0,0,1-.31-.31,1,1,0,0,1,0-1,1.23,1.23,0,0,1,.36-.36v0a2.2,2.2,0,0,1-.44-.54,1.49,1.49,0,0,1-.19-.77,1.81,1.81,0,0,1,.14-.72,1.59,1.59,0,0,1,.4-.55,1.77,1.77,0,0,1,.58-.34,2.2,2.2,0,0,1,1.08-.09,1.35,1.35,0,0,1,.32.09h1.69v.63h-1a1.23,1.23,0,0,1,.28.43,1.32,1.32,0,0,1,.12.57,1.75,1.75,0,0,1-.14.7,1.47,1.47,0,0,1-.38.53,1.63,1.63,0,0,1-.57.34,1.92,1.92,0,0,1-.69.12,1.64,1.64,0,0,1-.37,0,1.9,1.9,0,0,1-.36-.12,1,1,0,0,0-.22.24.59.59,0,0,0-.09.34.48.48,0,0,0,.18.38,1.12,1.12,0,0,0,.68.15h.94a2.38,2.38,0,0,1,1.27.27,1,1,0,0,1,.43.89,1.33,1.33,0,0,1-.17.64,1.77,1.77,0,0,1-.49.54,2.56,2.56,0,0,1-.78.36A3.54,3.54,0,0,1,139.88,65.29Zm.12-.57a2.08,2.08,0,0,0,.63-.09,1.85,1.85,0,0,0,.49-.22,1,1,0,0,0,.31-.31.75.75,0,0,0,.11-.37.47.47,0,0,0-.25-.47,1.59,1.59,0,0,0-.73-.13h-.84l-.31,0a1.8,1.8,0,0,1-.32-.06,1.29,1.29,0,0,0-.38.4.84.84,0,0,0-.12.42.7.7,0,0,0,.37.62A2,2,0,0,0,140,64.72ZM139.88,61a1,1,0,0,0,.39-.08,1,1,0,0,0,.33-.23.93.93,0,0,0,.23-.37,1.42,1.42,0,0,0,.08-.48,1.14,1.14,0,0,0-.3-.84,1.06,1.06,0,0,0-1.46,0,1.14,1.14,0,0,0-.3.84,1.42,1.42,0,0,0,.08.48,1,1,0,0,0,.22.37,1.23,1.23,0,0,0,.33.23A1.1,1.1,0,0,0,139.88,61Z"/><polygon class="cls-5" points="175.06 16.34 172.48 13.97 171.19 16.46 173.17 16.69 175.06 16.34 175.06 16.34"/><polygon class="cls-5" points="172.92 19.41 182.27 20.01 191.62 19.41 182.27 14.24 172.92 19.41 172.92 19.41"/><polygon class="cls-5" points="188.59 16.34 190.86 16.75 193.34 16.46 191.13 11.78 188.59 16.34 188.59 16.34"/><polygon class="cls-6" points="179.2 33.27 184.55 32.01 189.71 33.22 184.36 38.3 179.2 33.27 179.2 33.27"/><polygon class="cls-7" points="179.79 15.88 177.01 15.4 174.15 11.83 177.01 6.06 179.79 6.93 179.79 15.88 179.79 15.88"/><polygon class="cls-8" points="172.92 9.5 172.92 6.2 182.27 1.52 184.74 6.75 179.79 8.73 177.01 7.86 177.01 15.29 182.27 14.24 185.07 26.55 182.27 43.92 179.47 42.52 179.47 38.56 177.01 37.58 177.01 19 172.92 19.41 172.92 16.11 171.19 16.46 171.19 10.19 172.92 9.5 172.92 9.5"/><polygon class="cls-7" points="187.11 3.94 189.08 4.93 191.62 6.2 191.62 9.5 193.34 10.19 193.34 16.46 191.62 16.11 191.62 19.41 189.41 19.2 187.52 19 187.52 22.68 187.52 22.7 187.52 22.72 191.62 22.72 191.62 26.12 189.71 26.29 189.71 29.72 185.07 30.64 185.07 34.6 189.7 33.23 189.71 36.72 185.07 38.56 185.07 42.52 182.27 43.92 182.27 31.2 182.27 26.96 182.27 22.7 182.27 22.67 182.27 18.48 182.27 14.24 184.74 14.73 184.74 8.73 182.27 7.86 182.27 5.76 182.27 1.52 187.11 3.94 187.11 3.94"/><polygon class="cls-5" points="185.07 6.88 182.27 5.76 177.01 7.86 179.79 8.73 185.07 6.88 185.07 6.88"/><polygon class="cls-8" points="184.74 7.86 187.52 7.86 187.52 15.29 184.74 14.73 184.74 7.86 184.74 7.86"/><polygon class="cls-5" points="177.01 7.86 182.27 5.76 183.37 6.2 185.07 6.88 187.52 7.86 184.74 8.73 182.27 7.86 179.79 8.73 177.01 7.86 177.01 7.86"/><path class="cls-3" d="M175.5,62.49V55.93h.83v6.56Z"/><path class="cls-3" d="M177.26,62.49l2.22-6.56h.94l2.22,6.56h-.89l-.62-2h-2.39l-.63,2Zm2-3.67-.31,1h2l-.31-1c-.12-.37-.24-.74-.34-1.1s-.22-.73-.32-1.11h0c-.1.38-.21.75-.31,1.11S179.38,58.45,179.26,58.82Z"/><path class="cls-3" d="M183.57,62.49V55.93h1l1.26,3.5c.08.22.16.45.23.68l.24.69h0c.08-.23.15-.46.22-.69s.15-.46.23-.68l1.24-3.5h1v6.56h-.78V58.88c0-.3,0-.62,0-1s0-.68.07-1h0l-.52,1.49-1.24,3.4H186l-1.24-3.4-.52-1.49h0c0,.29,0,.61.06,1s0,.67,0,1v3.61Z"/><path class="cls-1" d="M275.41,23.61A21.52,21.52,0,1,1,253.89,2.09a21.51,21.51,0,0,1,21.52,21.52Z"/><path class="cls-2" d="M275.41,21.84A21.52,21.52,0,1,1,253.89.32a21.52,21.52,0,0,1,21.52,21.52Z"/><polygon class="cls-4" points="255.66 34.8 252.13 34.8 252.13 9.02 255.66 9.02 255.66 34.8 255.66 34.8"/><polygon class="cls-4" points="249.49 10.31 253.89 2.67 258.3 10.31 249.49 10.31 249.49 10.31"/><polygon class="cls-4" points="249.49 33.51 253.89 41.15 258.3 33.51 249.49 33.51 249.49 33.51"/><polygon class="cls-4" points="273 23.61 263.88 23.61 263.88 20.07 273 20.07 273 23.61 273 23.61"/><polygon class="cls-4" points="265.17 26.25 257.54 21.84 265.17 17.43 265.17 26.25 265.17 26.25"/><polygon class="cls-4" points="243.91 23.61 234.79 23.61 234.79 20.07 243.91 20.07 243.91 23.61 243.91 23.61"/><polygon class="cls-4" points="242.62 26.25 250.25 21.84 242.62 17.43 242.62 26.25 242.62 26.25"/><path class="cls-3" d="M230.46,63.05V56.49h.86l2.37,4.12L234.4,62h0c0-.34,0-.68-.06-1s0-.71,0-1V56.49h.79v6.56h-.86l-2.38-4.13-.71-1.35h0c0,.33.06.67.08,1s0,.69,0,1v3.43Z"/><path class="cls-3" d="M238.82,63.17a2.31,2.31,0,0,1-.91-.18,2.11,2.11,0,0,1-.74-.5,2.27,2.27,0,0,1-.5-.79,3,3,0,0,1-.18-1.07,2.85,2.85,0,0,1,.19-1.08,2.39,2.39,0,0,1,.49-.8,2.14,2.14,0,0,1,.69-.51,1.9,1.9,0,0,1,.81-.17,2,2,0,0,1,.83.16,1.54,1.54,0,0,1,.61.46,2,2,0,0,1,.37.72,3.05,3.05,0,0,1,.13.94v.25a.69.69,0,0,1,0,.22H237.3a1.91,1.91,0,0,0,.49,1.23,1.48,1.48,0,0,0,1.13.46,1.93,1.93,0,0,0,.65-.11,3.2,3.2,0,0,0,.56-.27l.29.54a4.27,4.27,0,0,1-.71.35A2.44,2.44,0,0,1,238.82,63.17Zm-1.53-2.94h2.6a1.75,1.75,0,0,0-.31-1.13,1.11,1.11,0,0,0-.89-.38,1.19,1.19,0,0,0-.49.1,1.21,1.21,0,0,0-.43.29,1.66,1.66,0,0,0-.31.48A2.3,2.3,0,0,0,237.29,60.23Z"/><path class="cls-3" d="M243.24,63.17a1.54,1.54,0,0,1-.65-.12,1.1,1.1,0,0,1-.43-.33,1.34,1.34,0,0,1-.24-.51,3.34,3.34,0,0,1-.07-.66V58.86h-.72v-.62l.76-.05.1-1.36h.69v1.36H244v.67h-1.31v2.7a1.21,1.21,0,0,0,.17.69.65.65,0,0,0,.58.25,1.45,1.45,0,0,0,.28,0l.27-.09.16.62-.43.12A1.89,1.89,0,0,1,243.24,63.17Z"/><path class="cls-3" d="M245.86,63.05l-1.35-4.86h.84l.72,2.81c.06.23.11.46.15.68s.1.44.14.67h0c.06-.23.11-.45.16-.68s.11-.45.17-.67l.75-2.81h.8L249,61l.18.68c.06.22.11.44.16.67h0c.06-.23.11-.45.15-.67l.15-.68.71-2.81h.78l-1.3,4.86h-1l-.7-2.61c-.06-.24-.11-.47-.16-.69s-.11-.47-.17-.71h0c-.05.24-.1.48-.16.71s-.11.46-.18.7l-.68,2.6Z"/><path class="cls-3" d="M254.12,63.17a2.14,2.14,0,0,1-1.57-.67,2.46,2.46,0,0,1-.49-.8,2.76,2.76,0,0,1-.19-1.07,2.86,2.86,0,0,1,.19-1.09,2.57,2.57,0,0,1,.49-.8,2.08,2.08,0,0,1,.72-.5,2.05,2.05,0,0,1,.85-.17,2.1,2.1,0,0,1,.86.17,2,2,0,0,1,.71.5,2.59,2.59,0,0,1,.5.8,3.08,3.08,0,0,1,.18,1.09,3,3,0,0,1-.18,1.07,2.47,2.47,0,0,1-.5.8,2.08,2.08,0,0,1-.71.5A2.27,2.27,0,0,1,254.12,63.17Zm0-.68a1.2,1.2,0,0,0,.57-.14,1.26,1.26,0,0,0,.45-.38,1.74,1.74,0,0,0,.28-.58,2.59,2.59,0,0,0,.1-.76,2.66,2.66,0,0,0-.1-.77,1.7,1.7,0,0,0-.28-.59,1.29,1.29,0,0,0-.45-.39,1.2,1.2,0,0,0-.57-.13,1.18,1.18,0,0,0-1,.52,1.91,1.91,0,0,0-.29.59,3.06,3.06,0,0,0-.1.77,3,3,0,0,0,.1.76,2,2,0,0,0,.29.58,1.23,1.23,0,0,0,.44.38A1.26,1.26,0,0,0,254.12,62.49Z"/><path class="cls-3" d="M257.65,63.05V58.19h.68l.07.88h0a2.22,2.22,0,0,1,.61-.73,1.23,1.23,0,0,1,.77-.27,1.21,1.21,0,0,1,.52.1l-.16.72-.22-.06a.9.9,0,0,0-.25,0,1.06,1.06,0,0,0-.64.25,1.89,1.89,0,0,0-.59.87v3.12Z"/><path class="cls-3" d="M261.12,63.05V55.93h.81v4.82h0L264,58.19h.91l-1.63,2,1.85,2.91h-.9l-1.42-2.34-.91,1.06v1.28Z"/><path class="cls-3" d="M266.49,57.19a.57.57,0,0,1-.4-.15.5.5,0,0,1-.17-.38.51.51,0,0,1,.17-.39.61.61,0,0,1,.4-.14.64.64,0,0,1,.41.14.5.5,0,0,1,.16.39.49.49,0,0,1-.16.38A.59.59,0,0,1,266.49,57.19Zm-.42,5.86V58.19h.82v4.86Z"/><path class="cls-3" d="M268.53,63.05V58.19h.68l.07.7h0a4,4,0,0,1,.74-.59,1.71,1.71,0,0,1,.89-.23,1.31,1.31,0,0,1,1.13.48,2.42,2.42,0,0,1,.35,1.42v3.08h-.82v-3a1.72,1.72,0,0,0-.22-1,.8.8,0,0,0-.7-.3A1.19,1.19,0,0,0,270,59a4.1,4.1,0,0,0-.66.56v3.52Z"/><path class="cls-3" d="M275.64,65.29a3.49,3.49,0,0,1-.82-.09,1.89,1.89,0,0,1-.63-.25,1.23,1.23,0,0,1-.41-.41,1,1,0,0,1-.15-.56,1.06,1.06,0,0,1,.19-.59,2,2,0,0,1,.52-.51v0a1,1,0,0,1-.3-.31.82.82,0,0,1-.13-.48.89.89,0,0,1,.17-.54,1.53,1.53,0,0,1,.36-.36v0a2.18,2.18,0,0,1-.43-.54,1.5,1.5,0,0,1-.2-.77,1.66,1.66,0,0,1,.15-.72,1.57,1.57,0,0,1,.39-.55,1.72,1.72,0,0,1,.59-.34,2.06,2.06,0,0,1,.7-.12,2.25,2.25,0,0,1,.38,0,1.4,1.4,0,0,1,.31.09H278v.63h-1a1.25,1.25,0,0,1,.29.43,1.48,1.48,0,0,1,.11.57,1.59,1.59,0,0,1-.14.7,1.47,1.47,0,0,1-.38.53,1.68,1.68,0,0,1-.56.34,2,2,0,0,1-.7.12,1.64,1.64,0,0,1-.37,0,2.53,2.53,0,0,1-.36-.12,1.26,1.26,0,0,0-.22.24.59.59,0,0,0-.09.34.48.48,0,0,0,.18.38,1.12,1.12,0,0,0,.68.15h.94a2.44,2.44,0,0,1,1.28.27,1,1,0,0,1,.42.89,1.23,1.23,0,0,1-.17.64,1.65,1.65,0,0,1-.49.54,2.62,2.62,0,0,1-.77.36A3.66,3.66,0,0,1,275.64,65.29Zm.12-.57a2.11,2.11,0,0,0,.64-.09,1.78,1.78,0,0,0,.48-.22.92.92,0,0,0,.31-.31.66.66,0,0,0,.11-.37.47.47,0,0,0-.25-.47,1.56,1.56,0,0,0-.73-.13h-.84l-.3,0a1.91,1.91,0,0,1-.33-.06,1.29,1.29,0,0,0-.38.4.84.84,0,0,0-.12.42.71.71,0,0,0,.38.62A2,2,0,0,0,275.76,64.72ZM275.64,61a1.1,1.1,0,0,0,.4-.08,1.23,1.23,0,0,0,.33-.23,1,1,0,0,0,.22-.37,1.21,1.21,0,0,0,.08-.48,1.14,1.14,0,0,0-.3-.84,1,1,0,0,0-.73-.29,1,1,0,0,0-.73.29,1.14,1.14,0,0,0-.3.84,1.42,1.42,0,0,0,.08.48,1.06,1.06,0,0,0,.23.37,1,1,0,0,0,.33.23A1,1,0,0,0,275.64,61Z"/><polygon class="cls-6" points="354.02 30.7 335.28 27.95 316.54 30.7 335.27 43.92 354.02 30.7 354.02 30.7"/><polygon class="cls-8" points="320.29 30.38 323.46 31.33 330.9 19.91 323.46 8.5 320.29 9.71 320.29 30.38 320.29 30.38"/><polygon class="cls-7" points="334.67 29.4 323.46 31.37 323.46 8.5 334.67 11.03 334.67 29.4 334.67 29.4"/><polygon class="cls-8" points="329.67 33.24 325.3 31.93 325.3 3.71 329.67 1.52 342.62 18.21 329.67 33.24 329.67 33.24"/><polygon class="cls-7" points="344.64 29.76 329.67 33.27 329.67 1.52 344.64 7.36 344.64 29.76 344.64 29.76"/><polygon class="cls-8" points="335.27 37.34 316.54 30.7 316.54 34.55 335.27 43.92 335.27 37.34 335.27 37.34"/><polygon class="cls-7" points="354.02 34.55 335.27 43.92 335.27 37.34 354.02 30.7 354.02 34.55 354.02 34.55"/><polygon class="cls-6" points="348.75 24.31 344.21 24.31 331.26 25.2 335.28 34.92 348.75 24.31 348.75 24.31"/><polygon class="cls-8" points="331.26 33.71 335.28 34.92 335.27 25.63 331.26 25.2 331.26 33.71 331.26 33.71"/><polygon class="cls-7" points="348.75 24.31 335.27 25.63 335.28 34.92 348.75 30.86 348.75 24.31 348.75 24.31"/><path class="cls-3" d="M319.57,62.85V56.29h.83v5.85h2.87v.71Z"/><path class="cls-3" d="M326.12,63a2.27,2.27,0,0,1-.86-.17,2.08,2.08,0,0,1-.71-.5,2.32,2.32,0,0,1-.5-.8,3,3,0,0,1-.18-1.07,3.08,3.08,0,0,1,.18-1.09,2.41,2.41,0,0,1,.5-.8,2,2,0,0,1,.71-.5,2.1,2.1,0,0,1,.86-.17A2.05,2.05,0,0,1,327,58a2.08,2.08,0,0,1,.72.5,2.57,2.57,0,0,1,.49.8,3.07,3.07,0,0,1,.19,1.09,3,3,0,0,1-.19,1.07,2.46,2.46,0,0,1-.49.8,2.14,2.14,0,0,1-1.57.67Zm0-.68a1.26,1.26,0,0,0,.57-.14,1.23,1.23,0,0,0,.44-.38,2,2,0,0,0,.29-.58,3,3,0,0,0,.1-.76,3.06,3.06,0,0,0-.1-.77,1.91,1.91,0,0,0-.29-.59,1.18,1.18,0,0,0-1-.52,1.22,1.22,0,0,0-1,.52,1.7,1.7,0,0,0-.28.59,2.66,2.66,0,0,0-.1.77,2.59,2.59,0,0,0,.1.76,1.74,1.74,0,0,0,.28.58,1.18,1.18,0,0,0,.45.38A1.2,1.2,0,0,0,326.12,62.29Z"/><path class="cls-3" d="M331.29,65.09a3.43,3.43,0,0,1-.82-.09,2,2,0,0,1-.64-.25,1.33,1.33,0,0,1-.41-.41,1,1,0,0,1-.14-.56,1,1,0,0,1,.19-.59,1.81,1.81,0,0,1,.52-.51v0a1,1,0,0,1-.31-.31.9.9,0,0,1-.12-.48.83.83,0,0,1,.17-.54,1.23,1.23,0,0,1,.36-.36v0a2.2,2.2,0,0,1-.44-.54,1.49,1.49,0,0,1-.19-.77,1.65,1.65,0,0,1,.14-.72,1.59,1.59,0,0,1,.4-.55,1.68,1.68,0,0,1,.58-.34,2.08,2.08,0,0,1,.71-.12,2.22,2.22,0,0,1,.37,0A1.5,1.5,0,0,1,332,58h1.69v.63h-1a1.39,1.39,0,0,1,.28.43,1.32,1.32,0,0,1,.12.57,1.75,1.75,0,0,1-.14.7,1.6,1.6,0,0,1-.38.53,1.8,1.8,0,0,1-.57.34,2,2,0,0,1-.69.12,1.57,1.57,0,0,1-.37-.05,1.9,1.9,0,0,1-.36-.12,1,1,0,0,0-.22.24.59.59,0,0,0-.09.34.48.48,0,0,0,.18.38,1.1,1.1,0,0,0,.68.15h.94a2.4,2.4,0,0,1,1.27.27,1,1,0,0,1,.43.89,1.33,1.33,0,0,1-.17.64,1.91,1.91,0,0,1-.49.54,2.81,2.81,0,0,1-.78.36A3.54,3.54,0,0,1,331.29,65.09Zm.12-.57a2.08,2.08,0,0,0,.63-.09,2,2,0,0,0,.49-.22,1.14,1.14,0,0,0,.31-.31.75.75,0,0,0,.11-.37.48.48,0,0,0-.25-.47,1.59,1.59,0,0,0-.73-.13h-.84l-.31,0a1.65,1.65,0,0,1-.32-.06,1.19,1.19,0,0,0-.38.4.84.84,0,0,0-.12.42.7.7,0,0,0,.37.62A2,2,0,0,0,331.41,64.52Zm-.12-3.76a1,1,0,0,0,.39-.08,1.23,1.23,0,0,0,.33-.23,1.06,1.06,0,0,0,.23-.37,1.42,1.42,0,0,0,.08-.48,1.14,1.14,0,0,0-.3-.84,1,1,0,0,0-.73-.29,1,1,0,0,0-.73.29,1.14,1.14,0,0,0-.3.84,1.21,1.21,0,0,0,.08.48.91.91,0,0,0,.22.37,1.23,1.23,0,0,0,.33.23A1.06,1.06,0,0,0,331.29,60.76Z"/><path class="cls-3" d="M336.33,65.09a3.43,3.43,0,0,1-.82-.09,2,2,0,0,1-.64-.25,1.33,1.33,0,0,1-.41-.41,1,1,0,0,1-.14-.56,1,1,0,0,1,.19-.59,1.81,1.81,0,0,1,.52-.51v0a1,1,0,0,1-.31-.31.9.9,0,0,1-.12-.48.83.83,0,0,1,.17-.54,1.23,1.23,0,0,1,.36-.36v0a2.2,2.2,0,0,1-.44-.54,1.49,1.49,0,0,1-.19-.77,1.65,1.65,0,0,1,.14-.72,1.59,1.59,0,0,1,.4-.55,1.68,1.68,0,0,1,.58-.34,2.08,2.08,0,0,1,.71-.12,2.22,2.22,0,0,1,.37,0A1.5,1.5,0,0,1,337,58h1.69v.63h-1a1.39,1.39,0,0,1,.28.43,1.32,1.32,0,0,1,.12.57,1.75,1.75,0,0,1-.14.7,1.6,1.6,0,0,1-.38.53,1.8,1.8,0,0,1-.57.34,2,2,0,0,1-.69.12,1.57,1.57,0,0,1-.37-.05,1.9,1.9,0,0,1-.36-.12,1,1,0,0,0-.22.24.59.59,0,0,0-.09.34.48.48,0,0,0,.18.38,1.1,1.1,0,0,0,.68.15h.94a2.4,2.4,0,0,1,1.27.27,1,1,0,0,1,.43.89,1.33,1.33,0,0,1-.17.64,1.91,1.91,0,0,1-.49.54,2.81,2.81,0,0,1-.78.36A3.54,3.54,0,0,1,336.33,65.09Zm.12-.57a2.08,2.08,0,0,0,.63-.09,2,2,0,0,0,.49-.22,1.14,1.14,0,0,0,.31-.31.75.75,0,0,0,.11-.37.48.48,0,0,0-.25-.47,1.59,1.59,0,0,0-.73-.13h-.84l-.31,0a1.65,1.65,0,0,1-.32-.06,1.19,1.19,0,0,0-.38.4.84.84,0,0,0-.12.42.7.7,0,0,0,.37.62A2,2,0,0,0,336.45,64.52Zm-.12-3.76a1,1,0,0,0,.39-.08,1.23,1.23,0,0,0,.33-.23,1.06,1.06,0,0,0,.23-.37,1.42,1.42,0,0,0,.08-.48,1.14,1.14,0,0,0-.3-.84,1,1,0,0,0-.73-.29,1,1,0,0,0-.73.29,1.14,1.14,0,0,0-.3.84,1.21,1.21,0,0,0,.08.48.91.91,0,0,0,.22.37,1.23,1.23,0,0,0,.33.23A1.06,1.06,0,0,0,336.33,60.76Z"/><path class="cls-3" d="M340.15,57a.59.59,0,0,1-.41-.15.49.49,0,0,1-.16-.38.5.5,0,0,1,.16-.39.64.64,0,0,1,.41-.14.61.61,0,0,1,.4.14.51.51,0,0,1,.17.39.5.5,0,0,1-.17.38A.57.57,0,0,1,340.15,57Zm-.42,5.86V58h.82v4.86Z"/><path class="cls-3" d="M342.19,62.85V58h.68l.07.7h0a3.64,3.64,0,0,1,.73-.59,1.77,1.77,0,0,1,.9-.23,1.3,1.3,0,0,1,1.12.48,2.34,2.34,0,0,1,.36,1.42v3.08h-.82v-3a1.8,1.8,0,0,0-.22-1,.81.81,0,0,0-.7-.3,1.15,1.15,0,0,0-.67.19,3.39,3.39,0,0,0-.66.56v3.52Z"/><path class="cls-3" d="M349.3,65.09a3.43,3.43,0,0,1-.82-.09,2,2,0,0,1-.64-.25,1.33,1.33,0,0,1-.41-.41,1,1,0,0,1-.14-.56,1,1,0,0,1,.19-.59,1.81,1.81,0,0,1,.52-.51v0a1,1,0,0,1-.31-.31.9.9,0,0,1-.12-.48.83.83,0,0,1,.17-.54,1.23,1.23,0,0,1,.36-.36v0a2.2,2.2,0,0,1-.44-.54,1.49,1.49,0,0,1-.19-.77,1.65,1.65,0,0,1,.14-.72,1.59,1.59,0,0,1,.4-.55,1.68,1.68,0,0,1,.58-.34,2.08,2.08,0,0,1,.71-.12,2.22,2.22,0,0,1,.37,0A1.5,1.5,0,0,1,350,58h1.69v.63h-1a1.39,1.39,0,0,1,.28.43,1.32,1.32,0,0,1,.12.57,1.75,1.75,0,0,1-.14.7,1.6,1.6,0,0,1-.38.53,1.8,1.8,0,0,1-.57.34,2,2,0,0,1-.69.12,1.57,1.57,0,0,1-.37-.05,1.9,1.9,0,0,1-.36-.12,1,1,0,0,0-.22.24.59.59,0,0,0-.09.34.48.48,0,0,0,.18.38,1.1,1.1,0,0,0,.68.15h.94a2.4,2.4,0,0,1,1.27.27,1,1,0,0,1,.43.89,1.33,1.33,0,0,1-.17.64,1.91,1.91,0,0,1-.49.54,2.81,2.81,0,0,1-.78.36A3.54,3.54,0,0,1,349.3,65.09Zm.12-.57a2.08,2.08,0,0,0,.63-.09,2,2,0,0,0,.49-.22,1.14,1.14,0,0,0,.31-.31.75.75,0,0,0,.11-.37.48.48,0,0,0-.25-.47,1.59,1.59,0,0,0-.73-.13h-.84l-.31,0a1.65,1.65,0,0,1-.32-.06,1.19,1.19,0,0,0-.38.4.84.84,0,0,0-.12.42.7.7,0,0,0,.37.62A2,2,0,0,0,349.42,64.52Zm-.12-3.76a1,1,0,0,0,.39-.08,1.23,1.23,0,0,0,.33-.23,1.06,1.06,0,0,0,.23-.37,1.42,1.42,0,0,0,.08-.48,1.14,1.14,0,0,0-.3-.84,1,1,0,0,0-.73-.29,1,1,0,0,0-.73.29,1.14,1.14,0,0,0-.3.84,1.21,1.21,0,0,0,.08.48.91.91,0,0,0,.22.37,1.23,1.23,0,0,0,.33.23A1.06,1.06,0,0,0,349.3,60.76Z"/><polygon class="cls-8" points="404.84 36.62 397.12 36.62 397.12 17.55 404.84 17.55 404.84 36.62 404.84 36.62"/><polygon class="cls-8" points="417.05 36.62 409.32 36.62 409.32 21.26 417.05 21.26 417.05 36.62 417.05 36.62"/><polygon class="cls-8" points="395.71 43.73 395.71 39.65 430.66 39.65 430.66 43.73 395.71 43.73 395.71 43.73"/><path class="cls-8" d="M421.53,15.25V36.62h7.72V15.25a8,8,0,0,1-7.72,0Z"/><polygon class="cls-7" points="404.84 34.83 397.12 34.83 397.12 15.76 404.84 15.76 404.84 34.83 404.84 34.83"/><polygon class="cls-7" points="417.05 34.83 409.32 34.83 409.32 19.47 417.05 19.47 417.05 34.83 417.05 34.83"/><polygon class="cls-7" points="395.71 41.94 395.71 37.86 430.66 37.86 430.66 41.94 395.71 41.94 395.71 41.94"/><path class="cls-7" d="M421.53,13.46V34.83h7.72V13.46a8,8,0,0,1-7.72,0Z"/><path class="cls-9" d="M430.05,8.16a4.66,4.66,0,1,1-9.32,0V6.37l4.66-2.87,4.66,2.87V8.16Z"/><path class="cls-10" d="M430.05,6.37a4.66,4.66,0,1,1-4.66-4.66,4.67,4.67,0,0,1,4.66,4.66Z"/><path class="cls-3" d="M391.22,62.85V56.29h1l1.26,3.5.24.68.23.69h0c.08-.23.16-.46.23-.69s.14-.46.22-.68l1.24-3.5h1v6.56h-.78V59.24c0-.3,0-.62,0-1s.05-.68.07-1h0l-.52,1.49-1.24,3.4h-.55l-1.24-3.4-.52-1.49h0c0,.29.05.61.07,1s0,.67,0,1v3.61Z"/><path class="cls-3" d="M400.3,63a2.14,2.14,0,0,1-1.57-.67,2.46,2.46,0,0,1-.49-.8,3,3,0,0,1-.19-1.07,3.07,3.07,0,0,1,.19-1.09,2.57,2.57,0,0,1,.49-.8,2.08,2.08,0,0,1,.72-.5,2.05,2.05,0,0,1,.85-.17,2.1,2.1,0,0,1,.86.17,2,2,0,0,1,.71.5,2.41,2.41,0,0,1,.5.8,3.08,3.08,0,0,1,.18,1.09,3,3,0,0,1-.18,1.07,2.32,2.32,0,0,1-.5.8,2.08,2.08,0,0,1-.71.5A2.27,2.27,0,0,1,400.3,63Zm0-.68a1.2,1.2,0,0,0,.57-.14,1.18,1.18,0,0,0,.45-.38,1.74,1.74,0,0,0,.28-.58,2.59,2.59,0,0,0,.1-.76,2.66,2.66,0,0,0-.1-.77,1.7,1.7,0,0,0-.28-.59,1.22,1.22,0,0,0-1-.52,1.18,1.18,0,0,0-1,.52,1.91,1.91,0,0,0-.29.59,3.06,3.06,0,0,0-.1.77,3,3,0,0,0,.1.76,2,2,0,0,0,.29.58,1.23,1.23,0,0,0,.44.38A1.26,1.26,0,0,0,400.3,62.29Z"/><path class="cls-3" d="M403.83,62.85V58h.68l.07.7h0a4,4,0,0,1,.74-.59,1.73,1.73,0,0,1,.89-.23,1.31,1.31,0,0,1,1.13.48,2.34,2.34,0,0,1,.35,1.42v3.08h-.82v-3a1.72,1.72,0,0,0-.22-1,.8.8,0,0,0-.7-.3,1.19,1.19,0,0,0-.67.19,4.1,4.1,0,0,0-.66.56v3.52Z"/><path class="cls-3" d="M409.72,57a.57.57,0,0,1-.4-.15.5.5,0,0,1-.17-.38.51.51,0,0,1,.17-.39.61.61,0,0,1,.4-.14.64.64,0,0,1,.41.14.5.5,0,0,1,.16.39.49.49,0,0,1-.16.38A.59.59,0,0,1,409.72,57Zm-.42,5.86V58h.82v4.86Z"/><path class="cls-3" d="M413.29,63a1.57,1.57,0,0,1-.65-.12,1.1,1.1,0,0,1-.43-.33A1.34,1.34,0,0,1,412,62a3.34,3.34,0,0,1-.07-.66V58.66h-.72V58l.76,0,.1-1.36h.69V58H414v.67h-1.31v2.7a1.21,1.21,0,0,0,.17.69.65.65,0,0,0,.58.25,1.45,1.45,0,0,0,.28,0l.27-.09.16.62-.43.12A1.89,1.89,0,0,1,413.29,63Z"/><path class="cls-3" d="M416.89,63a2.14,2.14,0,0,1-1.57-.67,2.46,2.46,0,0,1-.49-.8,3,3,0,0,1-.19-1.07,3.07,3.07,0,0,1,.19-1.09,2.57,2.57,0,0,1,.49-.8A2.08,2.08,0,0,1,416,58a2.05,2.05,0,0,1,.85-.17,2.1,2.1,0,0,1,.86.17,2,2,0,0,1,.71.5,2.59,2.59,0,0,1,.5.8,3.08,3.08,0,0,1,.18,1.09A3,3,0,0,1,419,61.5a2.47,2.47,0,0,1-.5.8,2.08,2.08,0,0,1-.71.5A2.27,2.27,0,0,1,416.89,63Zm0-.68a1.2,1.2,0,0,0,.57-.14,1.18,1.18,0,0,0,.45-.38,1.74,1.74,0,0,0,.28-.58,2.59,2.59,0,0,0,.1-.76,2.66,2.66,0,0,0-.1-.77,1.7,1.7,0,0,0-.28-.59,1.22,1.22,0,0,0-1-.52,1.18,1.18,0,0,0-1,.52,1.91,1.91,0,0,0-.29.59,3.06,3.06,0,0,0-.1.77,3,3,0,0,0,.1.76,2,2,0,0,0,.29.58,1.23,1.23,0,0,0,.44.38A1.26,1.26,0,0,0,416.89,62.29Z"/><path class="cls-3" d="M420.42,62.85V58h.68l.07.88h0a2.22,2.22,0,0,1,.61-.73,1.23,1.23,0,0,1,.77-.27,1.21,1.21,0,0,1,.52.1l-.16.72-.22-.06a.9.9,0,0,0-.25,0,1.06,1.06,0,0,0-.64.25,2,2,0,0,0-.59.87v3.12Z"/><path class="cls-3" d="M424.31,57a.57.57,0,0,1-.4-.15.5.5,0,0,1-.17-.38.51.51,0,0,1,.17-.39.61.61,0,0,1,.4-.14.64.64,0,0,1,.41.14.5.5,0,0,1,.16.39.49.49,0,0,1-.16.38A.59.59,0,0,1,424.31,57Zm-.42,5.86V58h.82v4.86Z"/><path class="cls-3" d="M426.35,62.85V58H427l.07.7h0a4,4,0,0,1,.74-.59,1.71,1.71,0,0,1,.89-.23,1.31,1.31,0,0,1,1.13.48,2.42,2.42,0,0,1,.35,1.42v3.08h-.82v-3a1.72,1.72,0,0,0-.22-1,.8.8,0,0,0-.7-.3,1.19,1.19,0,0,0-.67.19,4.1,4.1,0,0,0-.66.56v3.52Z"/><path class="cls-3" d="M433.46,65.09a3.49,3.49,0,0,1-.82-.09,1.89,1.89,0,0,1-.63-.25,1.23,1.23,0,0,1-.41-.41,1,1,0,0,1-.15-.56,1.06,1.06,0,0,1,.19-.59,2,2,0,0,1,.52-.51v0a1,1,0,0,1-.3-.31.82.82,0,0,1-.13-.48.89.89,0,0,1,.17-.54,1.53,1.53,0,0,1,.36-.36v0a2.18,2.18,0,0,1-.43-.54,1.5,1.5,0,0,1-.2-.77,1.66,1.66,0,0,1,.15-.72,1.71,1.71,0,0,1,.39-.55,1.82,1.82,0,0,1,.59-.34,2.06,2.06,0,0,1,.7-.12,2.25,2.25,0,0,1,.38,0,1.26,1.26,0,0,1,.31.09h1.69v.63h-1a1.25,1.25,0,0,1,.29.43,1.32,1.32,0,0,1,.11.57,1.59,1.59,0,0,1-.14.7,1.47,1.47,0,0,1-.38.53,1.75,1.75,0,0,1-.56.34,2,2,0,0,1-.7.12,1.64,1.64,0,0,1-.37-.05l-.36-.12a1.26,1.26,0,0,0-.22.24.59.59,0,0,0-.09.34.48.48,0,0,0,.18.38,1.12,1.12,0,0,0,.68.15h.94a2.44,2.44,0,0,1,1.28.27,1,1,0,0,1,.42.89,1.23,1.23,0,0,1-.17.64,1.65,1.65,0,0,1-.49.54,2.62,2.62,0,0,1-.77.36A3.66,3.66,0,0,1,433.46,65.09Zm.12-.57a2.11,2.11,0,0,0,.64-.09,1.78,1.78,0,0,0,.48-.22.92.92,0,0,0,.31-.31.66.66,0,0,0,.11-.37.47.47,0,0,0-.25-.47,1.56,1.56,0,0,0-.73-.13h-.84l-.3,0a1.91,1.91,0,0,1-.33-.06,1.29,1.29,0,0,0-.38.4.84.84,0,0,0-.12.42.71.71,0,0,0,.38.62A2,2,0,0,0,433.58,64.52Zm-.12-3.76a1.1,1.1,0,0,0,.4-.08,1.23,1.23,0,0,0,.33-.23.91.91,0,0,0,.22-.37,1.21,1.21,0,0,0,.08-.48,1.14,1.14,0,0,0-.3-.84,1,1,0,0,0-.73-.29,1,1,0,0,0-.73.29,1.14,1.14,0,0,0-.3.84,1.42,1.42,0,0,0,.08.48,1.06,1.06,0,0,0,.23.37,1,1,0,0,0,.33.23A1,1,0,0,0,433.46,60.76Z"/></g></g></svg>